HIERARCHY
ROOT Hips
{
	OFFSET 0.00000 0.00000 0.00000
	CHANNELS 6 Xposition Yposition Zposition Zrotation Yrotation Xrotation 
	JOINT LHipJoint
	{
		OFFSET 0 0 0
		CHANNELS 3 Zrotation Yrotation Xrotation
		JOINT LeftHip
		{
			OFFSET 1.59801 -1.77853 0.57028
			CHANNELS 3 Zrotation Yrotation Xrotation
			JOINT LeftKnee
			{
				OFFSET 2.39439 -6.57854 0.00000
				CHANNELS 3 Zrotation Yrotation Xrotation
				JOINT LeftAnkle
				{
					OFFSET 2.69334 -7.39989 0.00000
					CHANNELS 3 Zrotation Yrotation Xrotation
					JOINT LeftToe
					{
						OFFSET 0.09553 -0.26245 1.73747
						CHANNELS 3 Zrotation Yrotation Xrotation
						End Site
						{
							OFFSET 0.00000 -0.00000 0.89391
						}
					}
				}
			}
		}
	}
	JOINT RHipJoint
	{
		OFFSET 0 0 0
		CHANNELS 3 Zrotation Yrotation Xrotation
		JOINT RightHip
		{
			OFFSET -1.54704 -1.77852 0.57028
			CHANNELS 3 Zrotation Yrotation Xrotation
			JOINT RightKnee
			{
				OFFSET -2.40286 -6.60180 0.00000
				CHANNELS 3 Zrotation Yrotation Xrotation
				JOINT RightAnkle
				{
					OFFSET -2.63873 -7.24984 0.00000
					CHANNELS 3 Zrotation Yrotation Xrotation
					JOINT RightToe
					{
						OFFSET -0.15631 -0.42945 1.84436
						CHANNELS 3 Zrotation Yrotation Xrotation
						End Site
						{
							OFFSET -0.00000 -0.00000 0.95734
						}
					}
				}
			}
		}
	}
	JOINT lowerback
	{
		OFFSET 0 0 0
		CHANNELS 3 Zrotation Yrotation Xrotation
		JOINT Chest
		{
			OFFSET -0.00436 1.89866 -0.04018
			CHANNELS 3 Zrotation Yrotation Xrotation
			JOINT Chest2
			{
				OFFSET 0.02031 1.88273 0.09634
				CHANNELS 3 Zrotation Yrotation Xrotation
				JOINT lowerneck
				{
					OFFSET 0 0 0
					CHANNELS 3 Zrotation Yrotation Xrotation
					JOINT Neck
					{
						OFFSET -0.13105 1.89371 0.23083
						CHANNELS 3 Zrotation Yrotation Xrotation
						JOINT Head
						{
							OFFSET 0.17062 1.83990 -0.54062
							CHANNELS 3 Zrotation Yrotation Xrotation
							End Site
							{
								OFFSET 0.04576 1.94782 -0.21839
							}
						}
					}
				}
				JOINT LeftCollar
				{
					OFFSET 0 0 0
					CHANNELS 3 Zrotation Yrotation Xrotation
					JOINT LeftShoulder
					{
						OFFSET 3.12424 1.09204 0.22226
CHANNELS 3 Zrotation Xrotation Yrotation
						JOINT LeftElbow
						{
OFFSET 0 -5.292770 0.000000
CHANNELS 3 Zrotation Xrotation Yrotation
							JOINT LeftWrist
							{
OFFSET 0 -2.852260 0.000000
CHANNELS 3 Zrotation Xrotation Yrotation
								JOINT lhand
								{
									OFFSET 0 0 0
CHANNELS 3 Zrotation Xrotation Yrotation
									JOINT LFingers
									{
OFFSET 0 -0.602100 0.000000
CHANNELS 3 Zrotation Xrotation Yrotation
										End Site
										{
OFFSET 0 -0.485430 0.000000
										}
									}
								}
								JOINT LThumb
								{
OFFSET 0 0.000000 0.000000
CHANNELS 3 Zrotation Xrotation Yrotation
									End Site
									{
OFFSET 0 -0.492840 0.492840
									}
								}
							}
						}
					}
				}
				JOINT RightCollar
				{
					OFFSET 0 0 0
					CHANNELS 3 Zrotation Yrotation Xrotation
					JOINT RightShoulder
					{
						OFFSET -2.91709 1.01504 0.30199
CHANNELS 3 Zrotation Xrotation Yrotation
						JOINT RightElbow
						{
OFFSET 0 -5.133040 0.000000
CHANNELS 3 Zrotation Xrotation Yrotation
							JOINT RightWrist
							{
OFFSET 0 -2.743050 0.000000
CHANNELS 3 Zrotation Xrotation Yrotation
								JOINT rhand
								{
									OFFSET 0 0 0
CHANNELS 3 Zrotation Xrotation Yrotation
									JOINT RFingers
									{
OFFSET 0 -0.767980 0.000000
CHANNELS 3 Zrotation Xrotation Yrotation
										End Site
										{
OFFSET 0 -0.619160 0.000000
										}
									}
								}
								JOINT RThumb
								{
OFFSET 0 0.000000 0.000000
CHANNELS 3 Zrotation Xrotation Yrotation
									End Site
									{
OFFSET 0 -0.628620 0.628620
									}
								}
							}
						}
					}
				}
			}
		}
	}
}
MOTION
Frames: 12
Frame Time: 0.008333333333333333
-0.304857 17.192190 1.319021 -1.272229 5.441239 1.705967 0.000000 0.000000 0.000000 -19.751104 -21.926143 9.175726 0.962385 6.246349 17.500916 1.183470 8.767810 -25.453081 0.597367 -4.947752 -13.759525 0.000000 0.000000 0.000000 22.424530 5.617575 11.969511 -0.048968 -1.428136 3.927742 -0.426150 -6.794729 -16.665897 -0.374281 3.929139 -10.877413 0.205883 -0.876283 -8.805082 2.413754 -1.095284 -8.592673 2.334884 -0.475055 -3.967878 -19.176751 -9.516413 -0.521766 10.535272 -15.250288 32.075704 5.445791 -8.189143 13.248516 0.000000 0.000000 0.000000 6.093404 10.714729 42.905568 87.239922 -59.968672 57.609959 10.179072 -90.495192 -27.858061 0.000000 0.000000 0.000000 -7.125000 0.000000 0.000000 -22.132437 56.811218 6.629990 0.000000 0.000000 0.000000 -32.540322 -4.479663 -44.148133 -125.920231 -54.511965 -90.534253 -22.072681 -55.631186 -3.484504 0.000000 0.000000 0.000000 7.125000 0.000000 0.000000 3.450999 26.218012 1.574240
-0.355779 17.191194 1.287340 -2.075337 6.178439 1.122490 0.000000 0.000000 0.000000 -19.019540 -22.780029 9.499053 1.043358 6.496012 18.230535 1.188745 9.136859 -25.773265 0.646277 -5.141546 -14.312944 0.000000 0.000000 0.000000 23.129212 4.397095 14.269640 0.000000 0.000000 0.000000 -0.227648 -7.405405 -14.591482 -0.393345 4.026694 -11.151802 -0.078580 -0.918309 -9.120589 2.340126 -1.142156 -8.400979 2.406465 -0.488632 -3.584381 -19.169256 -9.122195 0.357278 10.599002 -14.999590 33.583822 5.609481 -8.136577 13.696206 0.000000 0.000000 0.000000 16.926676 5.903555 40.572656 81.739186 -59.740021 52.852180 8.213598 -87.085504 -29.152262 0.000000 0.000000 0.000000 -7.125000 0.000000 0.000000 -25.029389 57.577847 8.044865 0.000000 0.000000 0.000000 -35.745106 -8.945215 -52.234283 -126.321883 -54.375345 -90.861499 -22.977978 -55.447986 -3.865060 0.000000 0.000000 0.000000 7.125000 0.000000 0.000000 2.761699 25.781673 1.287006
-0.326803 17.210897 1.163481 -1.557019 4.371313 1.355657 0.000000 0.000000 0.000000 -19.686485 -22.277239 9.537356 0.942977 6.184975 17.321904 1.148063 9.686887 -25.889764 0.482046 -4.451920 -12.351707 0.000000 0.000000 0.000000 22.925185 7.516129 12.040626 -0.058005 -1.554569 4.276151 -0.372512 -7.513672 -16.657213 -0.426786 4.192692 -11.619338 -0.420742 -0.655431 -8.483238 2.547455 -0.790314 -7.535170 2.830774 -0.305395 -3.027515 -19.364953 -8.968828 -0.265015 10.719417 -14.493177 32.344128 5.704803 -7.868045 13.197086 0.000000 0.000000 0.000000 15.532613 4.875235 41.559726 80.273678 -59.639477 51.586912 8.940527 -86.405905 -29.146006 0.000000 0.000000 0.000000 -7.125000 0.000000 0.000000 -24.294965 57.727192 7.876757 0.000000 0.000000 0.000000 -34.344049 -10.218326 -51.008577 -129.041637 -53.374715 -93.058613 -22.592771 -53.888012 -4.001355 0.000000 0.000000 0.000000 7.125000 0.000000 0.000000 3.052217 25.645858 1.432408
-0.266585 17.255481 0.988511 -1.387828 3.907137 2.406554 0.000000 0.000000 0.000000 -19.603053 -22.945118 8.053341 0.898809 6.042208 16.906973 0.972153 10.761685 -25.414627 0.509301 -4.573809 -12.697044 0.000000 0.000000 0.000000 22.408393 9.291276 9.788852 -0.111206 -2.149294 5.918508 -0.305625 -8.100480 -16.383047 -0.464683 4.372419 -12.126765 -0.305234 -0.539513 -7.762016 2.526109 -0.656720 -6.693137 2.747612 -0.255949 -2.547371 -19.052255 -9.319049 -0.812996 11.436293 -14.975281 30.830262 5.796167 -7.921222 12.779028 0.000000 0.000000 0.000000 11.147276 4.966409 37.967006 77.892012 -59.438091 49.533993 7.028819 -84.030007 -28.980999 0.000000 0.000000 0.000000 -7.125000 0.000000 0.000000 -26.078508 57.175714 8.154482 0.000000 0.000000 0.000000 -29.927894 -5.782403 -44.070137 -129.187200 -53.318100 -93.175400 -22.237630 -49.313199 -4.348587 0.000000 0.000000 0.000000 7.125000 0.000000 0.000000 3.318081 25.282511 1.585603
-0.216956 17.296373 0.785780 -0.683717 4.213055 3.387692 0.000000 0.000000 0.000000 -19.623086 -22.858276 6.206261 0.812722 5.752768 16.068765 0.741487 10.842809 -23.581862 0.627237 -5.065035 -14.094643 0.000000 0.000000 0.000000 21.359747 10.344569 7.085552 -0.208071 -2.936546 8.102128 -0.349206 -8.222920 -17.056953 -0.418464 4.151285 -11.502705 -0.938378 -0.681614 -6.800118 2.676712 -0.831500 -5.502616 3.247212 -0.338214 -1.818220 -19.097166 -9.797818 -2.674715 11.448377 -14.979101 28.197441 5.632178 -7.794705 12.072522 0.000000 0.000000 0.000000 8.176061 5.126632 27.839188 54.660403 -54.708249 29.939096 2.256561 -68.350817 -30.325865 0.000000 0.000000 0.000000 -7.125000 0.000000 0.000000 -31.818556 57.343314 10.319862 0.000000 0.000000 0.000000 -26.255395 -2.232058 -36.535671 -121.702742 -55.838239 -87.071677 -21.676312 -38.038374 -7.292065 0.000000 0.000000 0.000000 7.125000 0.000000 0.000000 3.738310 22.145142 2.057403
-0.155760 17.336353 0.542272 -0.130379 4.552207 4.287618 0.000000 0.000000 0.000000 -19.511544 -22.786844 3.995222 0.780808 5.641303 15.747094 0.607394 10.414909 -21.966358 0.693956 -5.325208 -14.838576 0.000000 0.000000 0.000000 20.255792 11.160145 4.840778 -0.264861 -3.310397 9.144107 -0.301694 -8.693689 -16.947511 -0.447477 4.289450 -11.892797 -1.366473 -1.343071 -4.424670 2.325656 -1.725009 -4.143687 3.108649 -0.798204 -1.670845 -17.630302 -11.232339 -9.334947 11.230486 -15.530761 23.905941 4.782123 -7.596721 11.653085 0.000000 0.000000 0.000000 6.429871 4.371745 11.972296 27.643033 -38.779153 9.901703 3.767332 -23.279060 -34.143605 0.000000 0.000000 0.000000 -7.125000 0.000000 0.000000 -33.946415 60.866353 14.054272 0.000000 0.000000 0.000000 -31.622880 -1.592823 -25.307477 -103.151494 -59.334522 -71.363942 -25.966147 -14.896254 -11.255096 0.000000 0.000000 0.000000 7.125000 0.000000 0.000000 0.812269 17.499321 0.530372
-0.143757 17.374596 0.411746 -1.060760 4.448587 6.330798 0.000000 0.000000 0.000000 -17.385683 -23.893285 0.711940 0.869793 5.946428 16.629136 0.653269 10.169256 -22.160431 0.633161 -5.090992 -14.168294 0.000000 0.000000 0.000000 20.604804 12.285195 3.396821 -0.155394 -2.539962 7.000510 -0.120247 -9.454923 -15.370427 -0.408786 4.102872 -11.366515 -0.647667 -1.666225 -3.988476 0.472139 -2.198407 -5.163592 0.819510 -1.067466 -3.035641 -17.367903 -12.561283 -11.915472 15.504822 -17.662379 19.247015 5.712073 -8.036403 11.208636 0.000000 0.000000 0.000000 10.282060 -1.018282 8.735083 16.555567 -26.268062 3.888692 6.809981 -6.804204 -28.116399 0.000000 0.000000 0.000000 -7.125000 0.000000 0.000000 -25.657247 56.358754 7.492396 0.000000 0.000000 0.000000 -54.508723 -8.010370 -25.298469 -68.728621 -58.206102 -41.690738 -35.032935 -1.911370 -13.402191 0.000000 0.000000 0.000000 7.125000 0.000000 0.000000 -5.183590 13.802922 -3.813084
-0.210869 17.381412 0.344008 -1.710577 4.984039 6.094741 0.000000 0.000000 0.000000 -15.811699 -22.049454 -1.410012 1.041075 6.489039 18.210211 0.791791 7.410098 -21.083807 0.614739 -5.017942 -13.959689 0.000000 0.000000 0.000000 21.544923 12.114779 3.640850 -0.126935 -2.296850 6.326782 -0.043676 -9.810380 -14.678265 -0.492192 4.497880 -12.481915 0.220552 -1.936005 -3.531848 -1.758221 -2.646450 -6.413315 -1.923443 -1.378817 -4.745044 -17.648954 -12.790729 -11.569364 16.402930 -18.278083 19.224143 5.980254 -8.287809 11.389526 0.000000 0.000000 0.000000 18.265847 -4.532100 4.971734 17.764653 -27.854386 4.438853 10.877010 -16.139770 -28.118976 0.000000 0.000000 0.000000 -7.125000 0.000000 0.000000 -21.607870 57.197007 6.666761 0.000000 0.000000 0.000000 -87.426372 -20.388806 -36.588567 -23.247822 -34.351532 -7.280800 -42.010727 13.874673 -17.069917 0.000000 0.000000 0.000000 7.125000 0.000000 0.000000 -9.062763 7.755150 -7.858740
-0.312592 17.243778 0.310373 -2.909766 6.058030 2.967298 0.000000 0.000000 0.000000 -13.881537 -16.698620 -4.059847 1.779643 8.390115 23.905964 1.082782 1.133290 -20.104936 1.227774 -7.027196 -19.796091 0.000000 0.000000 0.000000 23.844384 11.875442 2.204961 -0.652022 -5.162740 14.373911 -0.350852 -9.574230 -18.464094 -0.424311 4.180211 -11.584282 0.646501 -1.642595 -2.687629 -3.048397 -2.309418 -6.421893 -3.483508 -1.270173 -5.302139 -18.102819 -12.900061 -10.463489 13.228239 -18.246971 23.084446 4.982810 -8.639567 12.309456 0.000000 0.000000 0.000000 19.324790 -4.832776 -1.984684 23.875171 -35.031117 7.635217 9.016622 -22.452197 -26.567003 0.000000 0.000000 0.000000 -7.125000 0.000000 0.000000 -22.437746 55.389372 5.940661 0.000000 0.000000 0.000000 -107.624836 -21.448276 -25.984123 -17.899017 -28.022686 -4.504280 -44.197453 19.372095 -18.458676 0.000000 0.000000 0.000000 7.125000 0.000000 0.000000 -10.112509 5.340374 -9.276321
-0.352690 16.859805 0.300509 -4.283242 6.105393 -3.423296 0.000000 0.000000 0.000000 -12.154876 -10.715647 -5.027252 3.467997 11.416701 33.698448 1.547702 -6.568403 -22.298944 1.456063 -7.626855 -21.586363 0.000000 0.000000 0.000000 25.528123 6.812651 0.692555 -2.078920 -9.028513 25.884646 -1.287901 -4.047458 -23.239570 -0.394134 4.030771 -11.163380 1.093464 -1.028399 -1.282520 -3.701971 -1.478574 -4.680865 -4.416768 -0.859033 -4.243764 -20.551101 -12.073228 -7.266380 10.862301 -16.800961 25.918409 4.952666 -8.618851 12.541543 0.000000 0.000000 0.000000 14.010373 -3.483016 -0.478315 21.494696 -32.401271 6.312979 8.458141 -9.396681 -22.797277 0.000000 0.000000 0.000000 -7.125000 0.000000 0.000000 -20.812547 51.790626 3.610336 0.000000 0.000000 0.000000 -115.414541 -16.980401 -1.343803 -85.039429 -59.905291 -55.705531 -39.065260 8.628937 -17.091094 0.000000 0.000000 0.000000 7.125000 0.000000 0.000000 -7.212516 8.514869 -6.115048
-0.328904 16.448775 0.249253 -5.458751 5.585149 -9.372905 0.000000 0.000000 0.000000 -10.874503 -7.800736 -3.923566 5.175156 13.578006 41.573340 2.033449 -9.971467 -25.610563 1.674156 -8.151215 -23.174559 0.000000 0.000000 0.000000 25.305326 0.410008 -0.121293 -3.559413 -11.549683 34.157097 -1.986925 1.862968 -26.157369 -0.469144 4.393021 -12.185052 1.309184 0.885253 -0.086280 -5.330292 1.132586 -1.545218 -6.277083 0.516375 -1.410505 -20.065826 -12.399625 -6.002502 11.982159 -18.265971 28.276514 5.147006 -9.209349 13.629804 0.000000 0.000000 0.000000 12.773776 -8.761022 16.913611 7.120175 -12.115486 0.758293 17.009968 33.890410 -25.762658 0.000000 0.000000 0.000000 -7.125000 0.000000 0.000000 -13.918550 56.215325 3.881802 0.000000 0.000000 0.000000 -110.945758 -24.569192 20.035355 -155.039266 -36.156327 -111.730178 -26.512312 10.978746 -18.500490 0.000000 0.000000 0.000000 7.125000 0.000000 0.000000 1.045763 9.499561 0.898729
-0.204225 16.392628 0.178774 -7.173434 4.525767 -9.564573 0.000000 0.000000 0.000000 -9.727398 -8.698204 -4.675522 5.706922 14.138103 43.793615 2.270415 -8.757916 -27.086666 1.631309 -8.050830 -22.868918 0.000000 0.000000 0.000000 26.298224 -0.243863 -0.947488 -3.649382 -11.678532 34.604210 -1.966753 3.459962 -25.663654 -0.536410 4.692730 -13.034140 0.920182 0.744405 0.427457 -4.028226 0.976583 -0.510545 -4.677340 0.474478 -0.678254 -19.612660 -12.277478 -7.007327 12.302469 -17.675389 25.600508 5.215296 -8.793238 12.577949 0.000000 0.000000 0.000000 13.360759 0.257493 -5.814464 10.687585 -17.807067 1.679757 14.027379 25.611777 -24.740244 0.000000 0.000000 0.000000 -7.125000 0.000000 0.000000 -16.401934 54.628227 3.959615 0.000000 0.000000 0.000000 -106.221296 -20.983304 17.389538 -144.566166 -45.117796 -104.879567 -27.040588 7.680898 -16.001674 0.000000 0.000000 0.000000 7.125000 0.000000 0.000000 0.455446 12.132908 0.349590
